<svg width="112" height="42" viewBox="0 0 112 42" fill="none" xmlns="http://www.w3.org/2000/svg">
<g clip-path="url(#clip0_271_176)">
<path d="M36.1085 21.0377C35.645 22.3551 34.7852 23.4735 33.6622 24.2196C32.5392 24.9657 31.2157 25.2979 29.8968 25.1648C27.1566 25.2343 24.5002 24.1589 22.4997 22.1702C21.5849 21.1265 20.54 20.2205 19.3938 19.4775C19.1763 19.502 18.9656 19.5725 18.7742 19.6849C18.5828 19.7972 18.4146 19.9492 18.2795 20.1318C14.6758 23.6213 13.0952 27.2199 13.5378 30.9275C13.5378 31.5566 13.5378 32.0347 13.5378 32.3871C13.5478 32.5463 13.5478 32.706 13.5378 32.8652C13.2296 33.1923 12.5894 33.1672 11.6648 32.7142C11.0788 32.4828 10.576 32.062 10.2272 31.5112C9.87845 30.9605 9.70128 30.3074 9.72068 29.6441C9.72068 26.725 12.0915 22.2457 16.8333 16.2313C17.8877 15.1154 18.6972 13.7664 19.2042 12.2804C19.2042 11.7436 18.8011 11.5422 17.995 11.6765C16.1951 11.9333 14.5268 12.8186 13.2533 14.1929C13.0562 14.3778 12.8049 14.4845 12.542 14.4949C11.8308 14.4949 11.4751 14.1678 11.4751 13.5386C11.4751 12.9095 11.5462 12.9347 11.8545 12.5824C14.0286 11.2688 16.4674 10.5267 18.9671 10.4182C19.5361 10.4182 20.1999 9.6381 20.9349 8.15338C21.6699 6.66866 22.2626 5.91372 22.8316 5.91372C22.9006 5.90146 22.9714 5.90644 23.0383 5.92827C23.1052 5.95009 23.1663 5.98815 23.217 6.03944C23.2676 6.09072 23.3062 6.15382 23.3299 6.22373C23.3535 6.29364 23.3615 6.36843 23.3532 6.44218C23.3152 6.83863 23.2275 7.22793 23.0924 7.59976C22.9883 8.02816 22.9247 8.46652 22.9027 8.90833C22.9027 9.73876 23.4954 10.1666 24.6809 10.1666C27.5918 10.1534 30.4314 11.1228 32.7893 12.9347C33.8243 13.566 34.6995 14.4545 35.3396 15.5241C35.9798 16.5936 36.3656 17.8121 36.4641 19.0749C36.488 19.7494 36.3664 20.4208 36.1085 21.0377ZM33.1923 17.6153C33.5479 15.9796 32.6944 14.5201 30.6081 13.2618C28.8195 12.1951 26.8035 11.632 24.752 11.6261C22.9264 11.6261 22.0018 12.1546 22.0018 13.2618C22.0018 15.0989 23.8037 16.8101 27.4074 18.4458C28.3177 18.8766 29.3032 19.0995 30.2998 19.1001C30.8663 19.1838 31.4433 19.0874 31.9582 18.8232C32.473 18.5589 32.9025 18.1386 33.1923 17.6153Z" fill="#2D61B7"/>
<path d="M42.6757 11.5506C42.519 14.176 41.6089 16.6875 40.0678 18.7477C39.1194 20.1821 38.6453 20.6351 38.6453 20.0815C38.6453 19.5278 38.6453 19.6788 38.6453 19.4272C38.6453 19.1755 38.6453 18.8987 38.6453 18.5716C38.6453 18.2444 38.6453 17.9173 38.7638 17.6657C38.7817 17.4564 38.7817 17.2458 38.7638 17.0365C38.7747 15.5074 38.4923 13.992 37.934 12.5824C37.5051 11.6848 37.1712 10.7395 36.9382 9.76392C36.9546 9.38186 37.0527 9.00877 37.2253 8.67302C37.3978 8.33726 37.6402 8.04766 37.934 7.82623C38.5194 7.2842 39.2673 6.98091 40.0441 6.97063C40.511 6.92183 40.9786 7.05615 41.3586 7.34822C41.7386 7.6403 42.0047 8.06993 42.1067 8.55601C42.4444 9.51599 42.6365 10.5268 42.6757 11.5506Z" fill="#2D61B7"/>
<path d="M64.8908 16.4829C64.9402 18.0108 64.6751 19.5318 64.1142 20.9399C63.5532 22.348 62.7098 23.6094 61.6427 24.6363C59.5185 26.6794 56.7317 27.7706 53.8662 27.6812C52.5631 27.6934 51.2716 27.4203 50.0724 26.8791C48.8731 26.3379 47.7918 25.5401 46.8959 24.5356C45.9951 23.7169 45.2706 22.7022 44.7715 21.5603C44.2725 20.4184 44.0105 19.176 44.0034 17.9173C44.009 16.962 44.2064 16.019 44.5826 15.1511C44.9587 14.2832 45.5049 13.5104 46.1846 12.8843C47.5789 11.4994 49.4199 10.734 51.3294 10.7453C54.7672 10.7453 56.7587 12.7837 57.3277 16.8855C57.4539 17.4377 57.4391 18.0155 57.2849 18.5596C57.1308 19.1036 56.8427 19.5942 56.4505 19.9808C55.6516 20.6827 54.6423 21.0576 53.6055 21.0377C52.2303 21.0377 51.3531 20.5848 50.9738 19.704C51.2016 18.9557 51.3215 18.1752 51.3294 17.3888C51.3873 16.2838 51.086 15.1911 50.4759 14.2936C50.2417 13.9522 49.935 13.6741 49.5809 13.4818C49.2267 13.2895 48.8348 13.1882 48.437 13.1863C47.7581 13.196 47.1072 13.4742 46.6114 13.9664C46.2776 14.2833 46.0101 14.671 45.8264 15.1045C45.6426 15.538 45.5466 16.0076 45.5445 16.4829C45.5826 17.3707 45.8171 18.2366 46.229 19.0104C46.6408 19.7842 47.2185 20.4442 47.9154 20.9371C49.475 22.2618 51.4184 22.9731 53.4158 22.9502C54.3272 22.9664 55.2325 22.7901 56.0791 22.4315C56.9257 22.073 57.6967 21.5393 58.3472 20.8616C59.0225 20.1741 59.5548 19.3444 59.91 18.4256C60.2653 17.5068 60.4355 16.5194 60.4099 15.5266C60.3657 14.2444 60.0832 12.984 59.5787 11.818C59.0742 10.652 58.3575 9.60328 57.47 8.73215C56.718 7.74612 55.7777 6.94032 54.7112 6.36778C53.6446 5.79525 52.4759 5.46896 51.282 5.4104C50.603 5.45198 49.9365 5.62245 49.3142 5.91369C48.8298 6.16489 48.3087 6.32659 47.7731 6.39182C47.4886 6.39182 47.3463 6.31633 47.3463 6.16534C47.3463 5.7627 47.8679 5.30974 48.8637 4.80644C49.934 4.28619 51.1008 4.02818 52.2778 4.0515C55.4983 4.14155 58.5595 5.55852 60.8129 8.00237C62.0284 9.0204 63.0221 10.3053 63.7259 11.7691C64.4298 13.2329 64.8272 14.8409 64.8908 16.4829Z" fill="#2D61B7"/>
<path d="M84.5691 19.0246C84.8804 19.527 85.0903 20.0926 85.1855 20.6854C85.1855 20.8616 85.1855 20.9622 84.9721 20.9622C84.7587 20.9622 84.2371 20.5344 83.6207 19.704C82.1913 17.4385 80.2518 15.5875 77.978 14.3188C77.7226 14.1735 77.438 14.0958 77.1482 14.0923C76.4133 14.0923 76.0339 14.4194 76.0102 15.0989C75.8043 16.8039 75.4632 18.4876 74.9907 20.1318C74.4407 22.1625 73.7917 24.1616 73.0466 26.121C71.7801 30.1141 69.8177 33.8189 67.2617 37.0425C64.9797 39.7675 61.8647 41.5499 58.4658 42.0755C55.3599 42.3523 53.3447 41.3709 52.3963 39.1564C52.2621 38.8877 52.1662 38.5994 52.1118 38.3008C52.1118 37.8478 52.9179 37.4955 54.4827 37.2187C57.035 36.725 59.4682 35.6935 61.6386 34.1851C63.809 32.6767 65.6727 30.7219 67.1194 28.4362C70.003 24.5378 71.8968 19.9199 72.6199 15.0234C72.8095 13.74 72.0983 12.5069 70.4861 11.7519L68.945 10.8963C68.707 10.8015 68.5009 10.6336 68.3531 10.414C68.2054 10.1944 68.1225 9.93303 68.1152 9.66327C68.0969 9.09514 68.2603 8.53716 68.5789 8.08021C68.8975 7.62326 69.3524 7.29426 69.8696 7.14679C70.818 6.94547 72.9755 8.00239 76.271 10.2924C79.6038 12.5261 82.436 15.5064 84.5691 19.0246Z" fill="#2D61B7"/>
<path d="M91.0889 16.5584C91.0889 16.961 91.0889 17.6153 90.9229 18.5464C90.757 19.4775 90.7095 20.6351 90.5199 22.0946C90.281 23.7615 90.1384 25.4423 90.0931 27.1276C90.0931 28.2097 90.0931 28.7381 89.8323 28.7381C89.5715 28.7381 89.453 28.3103 89.2396 27.4547L87.7697 14.8724C87.7697 14.0922 87.6274 13.3121 87.58 12.5069C87.5326 11.7016 87.58 10.8963 87.414 9.99039C87.3175 8.29671 86.8289 6.65445 85.9915 5.20908C85.8285 4.80277 85.74 4.36719 85.7307 3.92568C85.7468 3.12217 86.0231 2.34905 86.5131 1.73635C86.7376 1.42606 87.0242 1.17256 87.3522 0.99413C87.6802 0.815704 88.0414 0.71681 88.4098 0.70459C89.3107 0.70459 90.0694 1.33371 90.7807 2.61711C91.4908 4.09485 91.8336 5.74064 91.7764 7.39842C91.729 7.97721 91.5156 11.0473 91.0889 16.5584Z" fill="#2D61B7"/>
<path d="M112 8.95867C112 11.4752 110.412 14.3943 107.258 17.5399L105.622 19.2762L102.54 22.4722C102.189 22.8159 101.907 23.2318 101.711 23.6946C101.516 24.1575 101.41 24.6576 101.402 25.1648C101.404 25.9073 101.628 26.63 102.042 27.2283C102.22 27.5392 102.471 27.7957 102.77 27.9722C103.069 28.1487 103.407 28.2393 103.749 28.2349C105.148 28.2349 106.452 26.7502 107.709 23.7556C108.467 21.692 109.06 20.6855 109.463 20.6855C109.866 20.6855 110.743 21.1888 111.289 22.1702C111.692 22.9371 111.881 23.8099 111.834 24.6867C111.87 26.1668 111.482 27.6238 110.72 28.864C110.168 29.949 109.369 30.8699 108.396 31.5425C107.423 32.2151 106.306 32.618 105.148 32.7142C104.292 32.7293 103.457 32.4366 102.777 31.8838C102.289 31.4264 101.852 30.9114 101.473 30.3487C100.904 29.5938 100.264 28.562 99.5055 27.3038C99.3939 27.1083 99.2376 26.9458 99.0511 26.8315C98.8646 26.7171 98.654 26.6545 98.4386 26.6495C97.8201 26.7148 97.226 26.9394 96.7079 27.3038C96.2937 27.6255 95.8277 27.8642 95.3328 28.0084C95.2595 27.9963 95.1928 27.9566 95.1449 27.8965C95.097 27.8364 95.0711 27.76 95.072 27.6813C95.072 27.4296 95.3565 26.8257 96.2337 25.8191C97.0465 24.9869 97.5154 23.8467 97.5377 22.6483C97.3085 20.6653 96.7969 18.7307 96.0203 16.9107C95.1614 14.7339 94.6487 12.4209 94.503 10.0659C94.427 7.53675 95.2767 5.07461 96.8739 3.19594C98.5964 1.50392 100.834 0.524878 103.18 0.43712C105.525 0.349362 107.822 1.15873 109.653 2.71781C110.446 3.51628 111.066 4.48764 111.471 5.56502C111.876 6.6424 112.057 7.80019 112 8.95867ZM109.629 9.73878C109.643 9.03817 109.514 8.34265 109.25 7.70044C108.981 7.10612 108.593 6.58198 108.112 6.16539C107.608 5.74404 107.038 5.42032 106.428 5.20912C105.752 4.99279 105.049 4.88258 104.342 4.88198C103.572 4.8752 102.814 5.08026 102.141 5.47718C101.467 5.87409 100.903 6.44932 100.501 7.14681C99.5002 8.83989 98.9968 10.811 99.0551 12.8089C99.0657 15.075 99.5009 17.3162 100.335 19.4021C100.409 19.7036 100.574 19.9709 100.806 20.1621C101.037 20.3534 101.322 20.4577 101.616 20.459C101.896 20.4431 102.17 20.3682 102.422 20.2386C102.675 20.1089 102.9 19.9272 103.086 19.704C103.417 19.4021 103.868 18.9491 104.437 18.3703L106.689 16.181C108.441 14.5257 109.528 12.2196 109.724 9.73878H109.629Z" fill="#2D61B7"/>
<path d="M11.2854 10.9718C10.5482 11.333 9.97077 11.982 9.67316 12.7837C9.44831 13.9459 9.44831 15.1445 9.67316 16.3068C9.67316 17.7663 9.15157 18.4458 7.77646 18.4206C6.40136 18.3954 5.83235 17.6153 5.99831 16.2816L6.61473 10.7705C6.61473 10.3427 6.30652 10.1162 5.54784 10.1162L1.37511 10.0659C0.450466 10.0659 0 9.7136 0 9.10965C0 8.50569 0.474174 7.85141 1.39881 7.85141H3.39035C4.40776 8.07217 5.46404 7.96706 6.42506 7.54943C6.52186 7.47624 6.60271 7.38184 6.66215 7.27262C6.66215 7.27262 6.66215 7.09646 6.66215 7.02097C6.85182 5.41043 7.0652 3.82504 7.27858 2.2145C7.49196 0.603954 7.75275 0 8.10838 0C8.46401 0 8.77223 0.754943 8.89077 2.26483L9.08044 4.35351L9.2464 5.96405C9.2464 6.46735 9.2464 7.19712 9.55462 7.5746C9.86283 7.95207 11.4039 8.05273 12.1863 8.05273H14.6757C16.0508 8.05273 16.7384 8.30437 16.7384 8.70701C16.7384 9.10965 15.6478 9.51228 15.221 9.58778C14.1061 9.76712 13.0156 10.0882 11.9729 10.544L11.2854 10.9718Z" fill="#FA505A"/>
</g>
<defs>
<clipPath id="clip0_271_176">
<rect width="112" height="42" fill="white"/>
</clipPath>
</defs>
</svg>
